<svg width="200" height="200" viewBox="0 0 200 200" fill="none" xmlns="http://www.w3.org/2000/svg">
<g clip-path="url(#clip0_134_36)">
<rect width="200" height="200" fill="none"/>
<g filter="url(#filter0_f_134_36)">
<path d="M-5 -9C-5 -9 -4.99999 62 -0.999999 95.25C2.99999 128.5 85.5 121.5 85.5 121.5C85.5 121.5 85 199.5 104.5 202C124 204.5 206 204.5 206 204.5" stroke="black"/>
</g>
<path d="M54.5 188.423C54.5 189.75 54.1543 190.662 53.5986 191.327C53.0298 192.008 52.1574 192.53 50.9298 192.911C48.4287 193.687 44.8436 193.769 40.5 193.769C36.1564 193.769 32.5713 193.687 30.0702 192.911C28.8426 192.53 27.9702 192.008 27.4014 191.327C26.8457 190.662 26.5 189.75 26.5 188.423C26.5 185.73 27.939 182.659 30.4654 180.241C32.9763 177.837 36.4856 176.154 40.5 176.154C44.5144 176.154 48.0237 177.837 50.5345 180.241C53.061 182.659 54.5 185.73 54.5 188.423Z" stroke="#36382E" stroke-width="2"/>
<line x1="3" y1="193.769" x2="78" y2="193.769" stroke="#36382E" stroke-width="2"/>
<ellipse cx="35.8846" cy="185.538" rx="1.73077" ry="3.46154" fill="#36382E"/>
<ellipse cx="45.1153" cy="185.538" rx="1.73077" ry="3.46154" fill="#36382E"/>
<path d="M13.8885 186.018C14.8602 182.048 16.6974 177.53 18.0485 174.479C18.4523 177.077 19.4122 180.701 21.6545 184.6C22.9001 186.765 24.6744 189.416 26.1256 191.51C26.698 192.336 27.2229 193.079 27.649 193.677C27.0045 193.701 26.2063 193.725 25.2816 193.743C22.6782 193.793 19.0781 193.789 15.0909 193.572C14.498 193.54 14.1437 193.348 13.9043 193.093C13.6449 192.816 13.4318 192.37 13.3182 191.69C13.0869 190.306 13.3255 188.318 13.8885 186.018Z" stroke="#36382E" stroke-width="2"/>
<path d="M67.1115 186.018C66.1398 182.048 64.3026 177.53 62.9515 174.479C62.5477 177.077 61.5878 180.701 59.3455 184.6C58.0999 186.765 56.3256 189.416 54.8744 191.51C54.302 192.336 53.7771 193.079 53.351 193.677C53.9955 193.701 54.7937 193.725 55.7184 193.743C58.3218 193.793 61.9219 193.789 65.9091 193.572C66.502 193.54 66.8563 193.348 67.0957 193.093C67.3551 192.816 67.5682 192.37 67.6818 191.69C67.9131 190.306 67.6745 188.318 67.1115 186.018Z" stroke="#36382E" stroke-width="2"/>
<path d="M45.1155 159.358C45.1155 159.358 40.6191 163.808 39.3202 169.017" stroke="#36382E" stroke-width="2" stroke-linecap="round"/>
<path d="M27 171V171" stroke="#36382E" stroke-width="4" stroke-linecap="round"/>
<path d="M54 171V171" stroke="#36382E" stroke-width="4" stroke-linecap="round"/>
<path d="M9.92308 159L3 170.538L9.92308 175.154" stroke="#36382E" stroke-width="2" stroke-linecap="round"/>
<path d="M71.0769 159L78 170.538L71.0769 175.154" stroke="#36382E" stroke-width="2" stroke-linecap="round"/>
</g>
<defs>
<filter id="filter0_f_134_36" x="-13.5" y="-17" width="227.5" height="230" filterUnits="userSpaceOnUse" color-interpolation-filters="sRGB">
<feFlood flood-opacity="0" result="BackgroundImageFix"/>
<feBlend mode="normal" in="SourceGraphic" in2="BackgroundImageFix" result="shape"/>
<feGaussianBlur stdDeviation="4" result="effect1_foregroundBlur_134_36"/>
</filter>
<clipPath id="clip0_134_36">
<rect width="200" height="200" fill="none"/>
</clipPath>
</defs>
</svg>
