<svg width="68" height="32" viewBox="0 0 68 32" fill="none" xmlns="http://www.w3.org/2000/svg">
<path d="M0 11.3033L6.49058 0.485655C6.77473 0.0120749 7.38899 -0.14149 7.86257 0.142658C8.33615 0.426806 8.48971 1.04107 8.20556 1.51465L2.69614 10.697L7.90277 14.1681C8.3623 14.4745 8.48647 15.0953 8.18012 15.5549C7.87377 16.0144 7.2529 16.1386 6.79337 15.8322L0 11.3033Z" fill="#36382E"/>
<path d="M31.8552 9.43964C31.7215 9.97552 32.0476 10.5183 32.5835 10.6519L37.8481 1.31056C37.1447 0.599767 37.1445 0.599933 37.1443 0.600114L37.1394 0.60503L37.1285 0.615929L37.0905 0.654344C37.0582 0.68724 37.0122 0.734606 36.9541 0.795658C36.8379 0.917725 36.6732 1.09473 36.4732 1.32041C36.0737 1.77122 35.5307 2.41914 34.951 3.21376C33.8017 4.78925 32.4627 7.0031 31.8552 9.43964Z" fill="#36382E"/>
<path d="M29.8481 27.0002C30.6765 27.0002 31.3481 25.657 31.3481 24.0002C31.3481 22.3433 30.6765 21.0002 29.8481 21.0002C29.0196 21.0002 28.3481 22.3433 28.3481 24.0002C28.3481 25.657 29.0196 27.0002 29.8481 27.0002Z" fill="#36382E"/>
<path d="M39.3481 24.0002C39.3481 25.657 38.6765 27.0002 37.8481 27.0002C37.0196 27.0002 36.3481 25.657 36.3481 24.0002C36.3481 22.3433 37.0196 21.0002 37.8481 21.0002C38.6765 21.0002 39.3481 22.3433 39.3481 24.0002Z" fill="#36382E"/>
<path fill-rule="evenodd" clip-rule="evenodd" d="M20.8569 26.8556C20.851 26.7397 20.8481 26.6213 20.8481 26.5002C20.8481 21.2534 26.3922 15.0002 33.8481 15.0002C41.3039 15.0002 46.8481 21.2534 46.8481 26.5002C46.8481 26.6213 46.8451 26.7397 46.8393 26.8556C47.7632 25.4779 48.704 24.0159 49.4295 22.7546C51.1105 19.832 51.9302 17.0966 52.3258 15.0012C52.3457 14.896 52.3645 14.7925 52.3822 14.6906C52.435 14.3881 52.4788 14.1004 52.5152 13.8288C52.5296 13.7208 52.5429 13.6153 52.5551 13.5124C52.6195 12.9688 53.5171 12.7733 53.7432 13.2718C53.8021 13.4017 53.8627 13.5361 53.9248 13.6747C54.0354 13.9215 54.1507 14.1815 54.2696 14.4532C54.3126 14.5514 54.3561 14.6512 54.3999 14.7524C56.3496 19.2481 59.1295 26.5988 58.1422 30.0002H66.3481V32.0002H1.34807V30.0002H9.554C8.5666 26.5988 11.3466 19.2481 13.2962 14.7524C13.3401 14.6512 13.3836 14.5514 13.4265 14.4532C13.5455 14.1815 13.6607 13.9215 13.7713 13.6747C13.8334 13.5361 13.894 13.4017 13.953 13.2718C14.1791 12.7733 15.0766 12.9688 15.141 13.5124C15.1532 13.6153 15.1665 13.7208 15.181 13.8288C15.2173 14.1004 15.2612 14.3881 15.3139 14.6906C15.3317 14.7925 15.3505 14.896 15.3703 15.0012C15.7659 17.0966 16.5856 19.832 18.2666 22.7546C18.9921 24.0159 19.933 25.4779 20.8569 26.8556ZM20.4588 29.8207L20.5687 29.9791C18.338 30.0205 15.2747 30.0149 11.8884 29.8308C11.7425 29.8228 11.6725 29.7975 11.6509 29.7883C11.6343 29.7813 11.6309 29.7777 11.6267 29.7733C11.6109 29.757 11.4952 29.6219 11.4168 29.1929C11.2503 28.2818 11.3822 26.8092 11.834 24.8995C12.3545 22.6996 13.2119 20.2632 14.0744 18.0904C14.599 19.8154 15.3782 21.7442 16.533 23.7518C17.6374 25.6719 19.1978 28.0012 20.4588 29.8207ZM44.3305 28.2907C44.6098 27.9564 44.8481 27.4394 44.8481 26.5002C44.8481 24.5443 43.7826 22.1628 41.7609 20.2273C39.7705 18.3217 37.0019 17.0002 33.8481 17.0002C30.6942 17.0002 27.9257 18.3217 25.9352 20.2273C23.9135 22.1628 22.8481 24.5443 22.8481 26.5002C22.8481 27.4394 23.0864 27.9564 23.3657 28.2907C23.6712 28.6564 24.2052 29.016 25.1448 29.3075C27.1157 29.919 30.0358 30.0002 33.8481 30.0002C37.6603 30.0002 40.5804 29.919 42.5514 29.3075C43.4909 29.016 44.025 28.6564 44.3305 28.2907ZM47.1274 29.9791L47.2373 29.8207C48.4983 28.0012 50.0587 25.6719 51.1632 23.7518C52.3179 21.7442 53.0972 19.8154 53.6217 18.0904C54.4843 20.2632 55.3416 22.6996 55.8621 24.8995C56.314 26.8092 56.4458 28.2818 56.2793 29.1929C56.2009 29.6219 56.0858 29.7564 56.07 29.7728C56.0682 29.7746 56.066 29.7769 56.0635 29.7788C56.06 29.7813 56.0548 29.7842 56.0452 29.7883C56.0237 29.7975 55.9536 29.8228 55.8077 29.8308C52.4214 30.0149 49.3582 30.0205 47.1274 29.9791Z" fill="#36382E"/>
<path d="M22.3481 4.00015C23.4526 4.00015 24.3481 4.89558 24.3481 6.00015V11.0002C24.3481 12.1047 23.4526 13.0002 22.3481 13.0002C21.2435 13.0002 20.3481 12.1047 20.3481 11.0002V6.00015C20.3481 4.89558 21.2435 4.00015 22.3481 4.00015Z" fill="#36382E"/>
<path d="M47.3481 6.00015C47.3481 4.89558 46.4526 4.00015 45.3481 4.00015C44.2435 4.00015 43.3481 4.89558 43.3481 6.00015V11.0002C43.3481 12.1047 44.2435 13.0002 45.3481 13.0002C46.4526 13.0002 47.3481 12.1047 47.3481 11.0002V6.00015Z" fill="#36382E"/>
<path d="M67.6961 11.3033L60.9028 15.8322C60.4432 16.1386 59.8224 16.0144 59.516 15.5549C59.2097 15.0953 59.3338 14.4745 59.7934 14.1681L65 10.697L59.4906 1.51465C59.2064 1.04107 59.36 0.426806 59.8336 0.142658C60.3072 -0.14149 60.9214 0.0120749 61.2056 0.485655L67.6961 11.3033Z" fill="#36382E"/>
</svg>
