<svg width="300" height="300" viewBox="0 0 300 300" fill="none" xmlns="http://www.w3.org/2000/svg">
<g clip-path="url(#clip0_120_8)">
<rect width="300" height="300"/>
<path d="M56.6326 311C59.7992 302.833 63.5326 290.4 75.1326 262C77.9275 255.157 81.1848 248.38 84.6991 241.925L83.9999 241C69.6666 221.667 43.6 185.4 52 173C60.4 160.6 91.4999 176.5 111.723 192.353M171 198.5C171.005 198.503 171.01 198.506 171.015 198.509M233.633 311.5C230.466 303.333 226.733 290.9 215.133 262.5C212.25 255.443 208.868 248.426 205.215 241.744L206.5 240.5C220.833 221.167 246.4 185.4 238 173C229.6 160.6 200.5 177.5 179.292 192.353M171.015 198.509C163.545 202.95 154.82 205.5 145.5 205.5C132.555 205.5 121.118 200.91 112.62 193.19C102.989 184.44 97.1326 171.67 97.1326 157C97.1326 129.386 119.518 107 147.133 107C174.747 107 195.5 127.886 195.5 155.5C195.5 170.54 188.859 184.03 178.349 193.196C176.076 195.179 173.622 196.959 171.015 198.509Z" stroke="black" stroke-width="3.5"/>
<path d="M9.64503 300C11.9933 293.355 14.7618 283.237 23.3638 260.127C25.3288 254.848 27.6021 249.617 30.0537 244.612C30.3019 244.105 30.2594 243.504 29.9394 243.039V243.039C19.3105 227.307 -0.0193473 197.796 6.20971 187.706C11.8571 178.558 31.3409 188.338 46.1061 199.858C46.4854 200.154 47.0406 199.884 47.0406 199.403V199.403C47.0406 199.285 47.0043 199.17 46.9371 199.073C42.3455 192.448 39.678 184.041 39.678 174.686C39.678 152.216 56.2782 134 76.7557 134C83.515 134 89.7199 135.852 95 139.141" stroke="black" stroke-width="3.5" stroke-linecap="round"/>
<path d="M283.355 300C281.007 293.355 278.238 283.237 269.636 260.127C267.671 254.848 265.398 249.617 262.946 244.612C262.698 244.105 262.741 243.504 263.061 243.039V243.039C273.69 227.307 293.019 197.796 286.79 187.706C281.143 178.558 261.659 188.338 246.894 199.858C246.515 200.154 245.959 199.884 245.959 199.403V199.403C245.959 199.285 245.996 199.17 246.063 199.073C250.654 192.448 253.322 184.041 253.322 174.686C253.322 152.216 236.722 134 216.244 134C209.485 134 203.28 135.852 198 139.141" stroke="black" stroke-width="3.5" stroke-linecap="round"/>
<path d="M134 143V155" stroke="black" stroke-width="6" stroke-linecap="round"/>
<path d="M159 145V157" stroke="black" stroke-width="6" stroke-linecap="round"/>
<path d="M161.926 168.172L130.75 166.338C128.327 166.196 126.796 168.807 128.254 170.748C133.126 177.236 140.686 184.947 147 184C152.981 183.103 159.521 177.492 163.903 172.767C165.53 171.014 164.313 168.313 161.926 168.172Z" stroke="black" stroke-width="3.5" stroke-linecap="round"/>
<path d="M-27.3872 291.111C-25.5608 285.942 -23.4075 278.073 -16.7171 260.099C-15.1887 255.993 -13.4206 251.925 -11.5138 248.032C-11.3207 247.637 -11.3538 247.17 -11.6027 246.808V246.808C-19.8696 234.572 -34.9039 211.619 -30.0591 203.771C-25.6667 196.656 -10.5126 204.263 0.971447 213.223C1.26644 213.453 1.69821 213.243 1.69821 212.869V212.869C1.69821 212.777 1.67001 212.688 1.61778 212.613C-1.95349 207.459 -4.02824 200.921 -4.02824 193.645C-4.02824 176.168 8.88308 162 24.81 162C30.0672 162 34.8933 163.44 39 165.998" stroke="black" stroke-width="3.5" stroke-linecap="round"/>
<path d="M327.387 291.111C325.561 285.942 323.408 278.073 316.717 260.099C315.189 255.993 313.421 251.925 311.514 248.032C311.321 247.637 311.354 247.17 311.603 246.808V246.808C319.87 234.572 334.904 211.619 330.059 203.771C325.667 196.656 310.513 204.263 299.029 213.223C298.734 213.453 298.302 213.243 298.302 212.869V212.869C298.302 212.777 298.33 212.688 298.382 212.613C301.953 207.459 304.028 200.921 304.028 193.645C304.028 176.168 291.117 162 275.19 162C269.933 162 265.107 163.44 261 165.998" stroke="black" stroke-width="3.5" stroke-linecap="round"/>
<path d="M94 81.84C100.02 80.4 121.683 75 150.749 75C174.288 75 193.935 78.9853 202.866 81.7672C205.162 82.4825 204.773 83.7027 202.384 83.4252C177.917 80.5839 146.148 73.2389 113.084 82.92C103.499 85.7263 123.63 76.44 184.899 84" stroke="black" stroke-width="2" stroke-linecap="round"/>
<path d="M168.676 59.3875C172.184 60.1696 179.195 62.5722 183.157 61.6337C187.119 60.6952 186.039 57.387 185.213 56.0183C183.975 54.2586 182.156 52.5568 179.184 52.0875C175.47 51.501 171.063 53.9477 169.736 56.8805C168.743 59.0744 164.842 66.6125 173.509 68.3722C179.7 69.6291 183.975 67.8857 185.213 66.126" stroke="black" stroke-width="3.5" stroke-linecap="round"/>
<path d="M235.639 68.0357C238.952 68.7806 245.573 71.0687 249.315 70.1749C253.057 69.2811 252.037 66.1304 251.257 64.827C250.088 63.1511 248.37 61.5303 245.563 61.0834C242.055 60.5247 237.892 62.855 236.639 65.6481C235.702 67.7376 232.017 74.9167 240.203 76.5925C246.05 77.7896 250.088 76.1293 251.257 74.4533" stroke="black" stroke-width="3.5" stroke-linecap="round"/>
<path d="M149 55.8035C150.402 53.9469 153.326 50.6977 153.806 52.5544C154.025 53.3989 153.589 55.8758 152.804 58.7622M149 68.8C150.419 66.2696 151.862 62.2218 152.804 58.7622M152.804 58.7622C154.7 55.3688 160.379 50.95 164 57.25" stroke="black" stroke-width="3.5" stroke-linecap="round"/>
<path d="M88.5044 66.9937C90.3269 62.1793 98.6456 63.085 100.789 61.1546C102.932 59.2241 102.704 55.8213 101.477 55.4954M101.477 55.4954C97.7245 54.0229 87.0829 56.0846 91.9858 67.4952C95.1179 74.7846 101.948 72.0975 105.211 68.0876C108.575 63.9538 106.209 56.7525 101.477 55.4954Z" stroke="black" stroke-width="3.5" stroke-linecap="round"/>
<path d="M19.9186 57.9025C22.1064 68.3278 21.6516 88.4436 29.3476 86.3198C33.6713 85.1266 38.6562 74.805 38.7716 69.6032M19.9186 57.9025C19.0904 58.648 17.1286 64.9967 12.4768 64.6261M19.9186 57.9025L19.915 57.8724M38.7716 69.6032C41.2906 78.7308 43.6407 81.6461 47.4839 80.5855C54.786 78.5703 54.4785 58.1326 51.8545 48M38.7716 69.6032L38.782 69.5506" stroke="black" stroke-width="3.5" stroke-linecap="round"/>
<path d="M212.682 56.3782C211.419 61.7414 206.461 71.0313 211.11 71.7817C213.722 72.2033 220.522 62.6354 221.803 60.2326M212.682 56.3782C212.061 56.5388 209.515 59.0592 207.092 57.8331M212.682 56.3782L212.687 56.3633M221.803 60.2326C221.023 65.0649 219.915 72.8349 222.237 73.2097C226.648 73.9217 231.271 64.3089 232.23 58.9836M221.803 60.2326L221.821 60.2104" stroke="black" stroke-width="3.5" stroke-linecap="round"/>
<path d="M62.2262 49.8616C62.2608 46.8204 64.6894 42.9022 66.9721 44.5723C69.2516 46.24 67.1276 56.2497 65.818 66.5079M61.9145 77.2322C62.332 76.6616 64.343 73.3141 65.818 66.5079M65.818 66.5079C66.5678 64.1992 71.2458 59.089 74.3636 59.6178C77.5201 60.1531 78.7923 65.3403 78.2125 68.1287C77.929 69.4922 77.1999 72.6617 79.6255 73.9813C82.158 75.3591 83.8427 71.8098 84.1837 70.7451" stroke="black" stroke-width="3.5" stroke-linecap="round"/>
<path d="M140.27 54.4817C138.781 51.8771 132.813 49.0611 126.693 58.5677C119.234 70.154 129.674 69.3885 132.434 67.4953C132.571 67.4017 132.702 67.3078 132.842 67.2193C134.184 66.3685 136.564 64.2161 137.904 60.4067M140.27 54.4817C139.529 56.1334 138.505 58.6982 137.904 60.4067M140.27 54.4817C140.27 54.4817 140.922 53.7904 141.34 53.3475M142.095 68.6975C136.654 68.7591 135.869 65.5037 137.904 60.4067" stroke="black" stroke-width="3.5" stroke-linecap="round"/>
<path d="M263.667 49.1281C266.545 44.9022 276.58 38.8539 282.523 46.4878C287.514 52.8988 285.206 63.2821 280.91 65.74C273.544 69.9534 270.296 62.8508 269.508 65.7455C268.878 68.0612 267.319 73.7862 266.75 75.8768" stroke="black" stroke-width="3.5" stroke-linecap="round"/>
<path d="M265.131 83.7273L265.788 81.3151" stroke="black" stroke-width="3.5" stroke-linecap="round"/>
</g>
<defs>
<clipPath id="clip0_120_8">
<rect width="300" height="300" fill="white"/>
</clipPath>
</defs>
</svg>
