<svg width="68" height="101" viewBox="0 0 68 101" fill="none" xmlns="http://www.w3.org/2000/svg">
<g id="Group 16">
<path id="Vector 103" d="M22.0121 6.55774C19.9016 8.66816 18.4186 12.0807 16.9641 14.6987C16.7508 15.0826 16.058 15.8045 16.293 16.2744C16.4436 16.5755 17.5477 17.398 17.5477 17.0622" stroke="#36382E" stroke-width="3" stroke-linecap="round"/>
<path id="Vector 104" d="M22.7999 5.24469C26.093 4.19093 29.738 3.0618 33.1731 2.61857C33.9945 2.51259 38.3743 1.46586 38.8193 2.35596" stroke="#36382E" stroke-width="3" stroke-linecap="round"/>
<path id="Vector 105" d="M44.0715 6.55774C45.4655 7.79688 47.1284 8.75748 48.5359 10.0301C52.2844 13.4191 55.3686 17.7071 57.99 21.9935C61.1527 27.165 64.0844 33.4077 65.0805 39.3843C65.2556 40.4348 65.6058 43.6006 65.6058 42.5357" stroke="#36382E" stroke-width="3" stroke-linecap="round"/>
<path id="Vector 106" d="M65.0805 47.0001C65.0805 47.9178 64.2404 49.6262 63.2422 49.6262" stroke="#36382E" stroke-width="3" stroke-linecap="round"/>
<path id="Vector 107" d="M18.5981 18.6379C20.3947 18.4383 22.0402 16.7996 23.9817 16.7996C26.5225 16.7996 29.3723 17.5454 31.5245 18.9005C36.3473 21.9371 41.0309 24.8747 44.6551 29.405C47.819 33.3598 52.0662 36.7867 54.6344 41.2226C55.3643 42.4833 57.1324 43.8627 57.4502 45.2931C57.5963 45.9504 58.5153 48.4061 58.5153 47.7879" stroke="#36382E" stroke-width="3" stroke-linecap="round"/>
<path id="Vector 108" d="M29.6278 10.7595C30.2994 11.3565 31.4542 11.4204 32.2539 11.81C33.6421 12.4862 34.8719 13.2929 36.2077 14.0276C38.6844 15.3898 45.8119 19.9842 43.4879 18.3753C42.312 17.5612 32.6507 10.7539 32.5165 11.0221" stroke="#36382E" stroke-width="3" stroke-linecap="round"/>
<path id="Vector 109" d="M17.8379 19.6267C16.0698 19.8232 13.6468 22.0597 12.6248 23.4224C10.8604 25.7748 8.80095 27.7995 7.35653 30.3994C4.75221 35.0872 2.41222 40.8852 2.1119 46.2908C1.90724 49.9746 1.61765 54.9424 4.93896 57.5045C5.88625 58.2353 10.6663 61.318 11.7428 59.8827" stroke="#36382E" stroke-width="3" stroke-linecap="round"/>
<path id="Vector 110" d="M57.8105 48.543C57.8105 51.1801 56.6025 53.3365 54.9756 55.3153C53.5969 56.9921 51.639 57.4559 49.8727 58.4652" stroke="#36382E" stroke-width="3" stroke-linecap="round"/>
<path id="Vector 111" d="M18.8301 36.778C17.2946 36.778 15.4617 38.8632 14.7273 40.0382C13.9575 41.27 12.5933 42.9024 12.5933 44.4323" stroke="#36382E" stroke-width="3" stroke-linecap="round"/>
<path id="Vector 112" d="M31.3038 36.778C31.3246 36.9438 33.9601 37.1113 34.312 37.1718C35.5537 37.3852 36.7748 37.9249 37.9659 38.3372C38.4084 38.4904 41.2664 40.2475 40.5174 40.7469" stroke="#36382E" stroke-width="3" stroke-linecap="round"/>
<path id="Vector 113" d="M30.0281 46.275C29.9417 45.5839 25.8488 46.0297 25.2796 46.3459C23.8301 47.1512 26.0051 49.7823 26.6262 50.7322C27.7235 52.4104 28.3249 54.3823 30.0123 51.9449C31.0895 50.389 31.3038 44.5245 31.3038 46.4168" stroke="#36382E" stroke-width="3" stroke-linecap="round"/>
<path id="Vector 114" d="M29.6029 64.9856C27.957 64.9372 26.1303 64.2401 24.5473 63.8201C22.5928 63.3016 20.6039 62.9767 18.6569 62.4341C16.6436 61.873 14.4899 61.3166 12.5933 60.4182C12.3724 60.3135 11.3993 59.8827 11.4593 59.8827" stroke="#36382E" stroke-width="3" stroke-linecap="round"/>
<path id="Vector 115" d="M29.0359 66.1196C28.1048 66.3058 26.5566 68.8402 25.9962 69.6554C25.5359 70.3249 25.1038 70.2302 24.3583 70.2302C22.878 70.2302 21.1265 69.5097 19.7121 69.0963C18.1844 68.6497 16.7266 68.2192 15.2865 67.5371C14.3713 67.1036 13.4042 66.7887 12.672 66.0566C12.2578 65.6423 11.9663 64.9092 11.5302 64.5604C11.0252 64.1564 11.3176 62.478 11.3176 61.8672" stroke="#36382E" stroke-width="3" stroke-linecap="round"/>
<path id="Vector 116" d="M48.597 58.7487C45.4679 59.7115 42.4582 60.9334 39.4149 62.1506C38.9358 62.3423 35.8124 63.9278 36.1233 64.1351" stroke="#36382E" stroke-width="3" stroke-linecap="round"/>
<path id="Vector 117" d="M35.698 64.9856C36.9211 66.2086 38.1495 67.3926 39.3519 68.6395C40.2779 69.5997 40.9336 69.9067 42.2498 68.9545C44.4827 67.3392 46.8005 66.0578 48.5969 63.8831C49.1855 63.1706 49.8547 62.5334 50.4081 61.7884C50.6297 61.4902 50.868 60.7316 51.1484 60.5914" stroke="#36382E" stroke-width="3" stroke-linecap="round"/>
<path id="Vector 118" d="M35.4146 67.537C35.4146 66.4231 31.3867 66.91 30.4534 67.1433C28.8858 67.5352 29.056 68.4074 29.8234 69.6632C30.4674 70.717 32.1777 71.677 33.4301 71.498C34.2008 71.3879 35.5888 68.8569 35.8398 68.104" stroke="#36382E" stroke-width="3" stroke-linecap="round"/>
<path id="Vector 119" d="M31.5874 73.0651V82.9874" stroke="#36382E" stroke-width="3" stroke-linecap="round"/>
<path id="Vector 120" d="M34.9893 71.6477C35.2064 73.8188 36.0438 75.8975 36.4776 78.0184C36.6402 78.8135 37.475 80.9269 36.7611 81.6408C35.4851 82.9168 34.3409 83.6962 32.5796 83.6962" stroke="#36382E" stroke-width="3" stroke-linecap="round"/>
<path id="Vector 121" d="M11.1758 62.8594C11.0364 64.1834 9.71465 65.7604 9.22283 67.0173C8.39893 69.1228 7.42915 71.1724 6.75014 73.3329C6.00502 75.7037 5.25237 78.0996 4.79719 80.5462C4.42278 82.5587 3.982 84.581 3.67109 86.6019C3.63723 86.8221 3.6187 87.0049 3.80496 87.098" stroke="#36382E" stroke-width="3" stroke-linecap="round"/>
<path id="Vector 122" d="M3.23804 88.0903C5.49977 88.9729 8.21331 89.0287 10.6089 88.9329C11.6007 88.8932 16.3336 88.5247 16.5622 87.3815" stroke="#36382E" stroke-width="3" stroke-linecap="round"/>
<path id="Vector 123" d="M19.6807 76.7505C18.4639 78.0349 18.0718 80.5295 17.838 82.2314C17.6739 83.4257 17.6962 84.6209 17.6962 85.8223" stroke="#36382E" stroke-width="3" stroke-linecap="round"/>
<path id="Vector 124" d="M6.92341 89.5078C5.73043 89.6403 5.24143 92.0179 5.00195 92.9254C4.60564 94.4272 5.07523 94.7419 6.49817 95.1461C9.37946 95.9647 15.0939 92.3722 14.436 89.0825" stroke="#36382E" stroke-width="3" stroke-linecap="round"/>
<path id="Vector 125" d="M6 96C5.87454 96.4584 4.03133 98.7762 5.68555 99" stroke="#36382E" stroke-width="3" stroke-linecap="round"/>
<path id="Vector 126" d="M51.9989 62.1506C52.0502 62.5612 52.9118 63.5311 53.1408 63.9461C53.5302 64.6519 54.2669 65.8501 54.2669 66.6865" stroke="#36382E" stroke-width="3" stroke-linecap="round"/>
<path id="Vector 127" d="M46.7543 72.6399C47.6873 74.9724 49.0222 77.2983 49.0222 79.869" stroke="#36382E" stroke-width="3" stroke-linecap="round"/>
<path id="Vector 128" d="M46.4707 72.3564C46.8982 72.2709 47.4321 71.6718 47.8094 71.4429C48.8648 70.8026 49.9047 70.1328 50.9278 69.4427C52.7472 68.2158 54.522 66.9375 56.3851 65.7731C57.1271 65.3093 57.8624 64.805 58.6609 64.4501C59.1943 64.213 59.381 64.7535 59.6531 65.2691C60.9422 67.7114 61.9211 70.2337 61.9211 73.0573C61.9211 73.336 61.9708 73.6588 61.8423 73.9156C61.6995 74.2013 61.5182 74.2804 61.2202 74.4432C59.0842 75.6103 56.8781 76.6447 54.7393 77.8058C53.2524 78.6129 51.511 79.0811 50.2979 80.2942" stroke="#36382E" stroke-width="3" stroke-linecap="round"/>
<path id="Vector 129" d="M59.7949 76.7505C60.2776 76.8578 60.4656 77.8272 60.5903 78.1916C61.0298 79.4764 61.5634 80.7326 62.0629 81.9952C62.7069 83.6232 63.2135 85.3053 63.7638 86.9563" stroke="#36382E" stroke-width="3" stroke-linecap="round"/>
<path id="Vector 130" d="M63.3386 88.3738C65.1652 88.6347 59.7657 89.4887 57.9207 89.5077C56.2561 89.5249 54.4075 89.7058 52.8494 89.0825" stroke="#36382E" stroke-width="3" stroke-linecap="round"/>
<path id="Vector 131" d="M50.8649 84.6884C50.8649 86.4706 51.3743 88.0255 52.5658 89.366" stroke="#36382E" stroke-width="3" stroke-linecap="round"/>
<path id="Vector 132" d="M62.3463 90.6417C62.7188 91.4331 62.7922 92.2335 62.7716 93.0987C62.757 93.7111 61.6398 93.6265 61.2124 93.6184C59.8371 93.5925 58.8734 92.6025 57.6687 92.2009" stroke="#36382E" stroke-width="3" stroke-linecap="round"/>
<path id="Vector 133" d="M62.3463 95.3193C62.4197 96.053 62.5929 96.8728 62.7716 97.5873" stroke="#36382E" stroke-width="3" stroke-linecap="round"/>
</g>
</svg>
