<svg width="46" height="45" viewBox="0 0 46 45" fill="none" xmlns="http://www.w3.org/2000/svg">
<g id="Group 12">
<path id="Vector 63" d="M2 34.642C2.23137 32.5598 6.55985 30.0229 8.07395 28.9799C8.63783 28.5914 12.0384 26.0839 12.9125 26.9095C14.1488 28.0771 13.7361 30.5471 13.7361 32.034C13.7361 35.9371 12.7948 39.6131 11.0594 43.0838" stroke="#36382E" stroke-width="3" stroke-linecap="round"/>
<path id="Vector 64" d="M7.35327 29.7005C7.35327 25.2203 7.35327 20.7402 7.35327 16.26C7.35327 13.304 8.65947 12.8192 11.4598 11.7875C13.754 10.9423 16.299 10.6784 18.6776 10.0946C21.4305 9.41885 24.1523 8.83019 26.9592 8.44742C28.2505 8.27132 29.5236 8.28727 30.8255 8.28727C31.9248 8.28727 31.649 9.08295 31.649 10.026C31.649 15.5242 31.649 21.0223 31.649 26.5205C31.649 29.7875 32.1195 34.0132 30.4137 36.9984C30.1348 37.4864 29.2471 37.3987 28.7665 37.4788C26.7218 37.8196 24.6432 37.9105 22.5896 38.188C21.8662 38.2858 15.1767 39.7882 14.9714 39.3776" stroke="#36382E" stroke-width="3" stroke-linecap="round"/>
<path id="Vector 65" d="M13.5302 22.9059C15.1342 22.7455 24.5255 18.8306 24.8544 19.8175" stroke="#36382E" stroke-width="3" stroke-linecap="round"/>
<path id="Vector 66" d="M17.4423 30.73C19.403 30.6366 21.3422 29.8157 23.2302 29.3345C23.8955 29.1649 25.7572 28.9247 26.0899 28.2592" stroke="#36382E" stroke-width="3" stroke-linecap="round"/>
<path id="Vector 67" d="M33.9139 4.99293C34.5259 4.61158 41.1403 -0.052514 40.1709 3.07123C39.6428 4.77296 38.4747 6.22157 37.7459 7.84116C37.3608 8.69702 40.8025 7.78152 41.2805 7.71534C43.8191 7.36382 42.0504 10.2443 43.0878 10.5407C45.4612 11.2188 42.9874 14.2629 42.3557 15.9054" stroke="#36382E" stroke-width="3" stroke-linecap="round"/>
</g>
</svg>
