<svg width="32" height="29" viewBox="0 0 32 29" fill="none" xmlns="http://www.w3.org/2000/svg">
<path id="Ellipse 2" d="M7.24742 13.4067C6.88374 13.8223 6.92586 14.4541 7.3415 14.8178C7.75713 15.1815 8.3889 15.1394 8.75258 14.7237C9.54907 13.8134 10.0597 13.2315 10.3986 12.8649C10.4895 13.0134 10.5934 13.1784 10.7025 13.3343C10.8699 13.5735 11.113 13.8864 11.4267 14.109C11.7669 14.3504 12.3435 14.5767 12.969 14.264C13.2255 14.1357 13.4187 13.9423 13.5434 13.8027C13.68 13.6497 13.8075 13.4766 13.9206 13.313C14.0381 13.1429 14.1879 12.9093 14.3252 12.6952C14.4174 12.5514 14.5039 12.4164 14.5712 12.3156C14.637 12.2169 14.6959 12.1323 14.7481 12.0605C15.348 12.4791 15.9555 12.6304 16.3478 12.6304C16.9001 12.6304 17.3478 12.1827 17.3478 11.6304C17.3478 11.0781 16.9001 10.6304 16.3478 10.6304C16.3558 10.6304 16.3596 10.6305 16.3597 10.6303C16.3598 10.6292 16.2855 10.6214 16.1601 10.5689C16.0208 10.5106 15.8426 10.4067 15.6636 10.2277C15.3933 9.95732 15.0122 9.78483 14.5757 9.83094C14.2017 9.87045 13.9194 10.0584 13.7483 10.198C13.4107 10.4734 13.1194 10.8877 12.9071 11.2062C12.7846 11.3898 12.6872 11.5429 12.5969 11.685C12.4987 11.8392 12.4088 11.9805 12.3041 12.1339C12.205 11.9878 12.1095 11.8297 12.0072 11.6602C11.9913 11.6338 11.9751 11.607 11.9588 11.58C11.8963 11.4768 11.8274 11.3641 11.7596 11.263C11.6986 11.1718 11.6054 11.039 11.4897 10.9233C11.4876 10.9212 11.485 10.9186 11.4821 10.9157C11.4474 10.8807 11.3578 10.7904 11.2538 10.7142C11.1208 10.6168 10.9021 10.4933 10.6059 10.4748C10.3179 10.4568 10.0818 10.5459 9.9202 10.6322C9.76398 10.7156 9.62776 10.823 9.51541 10.9213C9.11659 11.2703 8.47684 12.0015 7.36816 13.2687C7.32852 13.314 7.28828 13.36 7.24742 13.4067ZM15.0207 11.7416C15.0207 11.7418 15.0184 11.7436 15.014 11.7466C15.0185 11.7429 15.0207 11.7414 15.0207 11.7416ZM14.7309 19.8547C14.2784 20.1714 14.1684 20.7949 14.4851 21.2474C14.8018 21.6998 15.4254 21.8099 15.8778 21.4931C16.4391 21.1002 17.3115 20.5304 18.0986 20.0983C18.421 19.9214 18.7085 19.779 18.9426 19.6815C18.949 19.7327 18.955 19.7892 18.9606 19.8514C18.9646 19.8951 18.9688 19.9495 18.9735 20.0098C18.9868 20.1806 19.0037 20.3989 19.0291 20.556C19.0463 20.6628 19.0834 20.864 19.1859 21.0606C19.298 21.2758 19.6036 21.6739 20.1739 21.6739C20.3352 21.6739 20.4679 21.6373 20.5247 21.6208C20.5982 21.5993 20.6674 21.5734 20.7257 21.5498C20.8429 21.5024 20.9718 21.4412 21.0994 21.377C21.3575 21.2472 21.6715 21.0737 21.9931 20.8892C22.6395 20.5186 23.364 20.0768 23.8343 19.7828C24.3027 19.4901 24.4451 18.8731 24.1523 18.4048C23.8596 17.9364 23.2427 17.7941 22.7743 18.0868C22.3172 18.3725 21.6156 18.8002 20.9982 19.1542C20.9634 19.1742 20.9289 19.1939 20.8949 19.2132C20.8687 19.0607 20.8323 18.9 20.7802 18.7436C20.6735 18.4234 20.4442 17.9519 19.9255 17.6925C19.5822 17.5209 19.2356 17.5465 19.046 17.5734C18.8273 17.6045 18.6084 17.6703 18.4117 17.7421C18.0148 17.8868 17.5678 18.1082 17.1362 18.3451C16.2653 18.8232 15.329 19.436 14.7309 19.8547ZM19.3273 19.5535C19.3445 19.5511 19.3425 19.553 19.3255 19.5538C19.3261 19.5537 19.3267 19.5536 19.3273 19.5535ZM18.8704 19.3429C18.8681 19.3389 18.8671 19.3366 18.8672 19.3365C18.8673 19.3363 18.8684 19.3383 18.8704 19.3429ZM21.0083 20.262C21.0082 20.2621 21.0075 20.2592 21.0062 20.2527C21.0077 20.2586 21.0084 20.2618 21.0083 20.262ZM3.04211 19.8619L3.12831 19.4997L2.95659 19.1693C2.14448 17.6067 1.69565 15.8803 1.69565 14.0652C1.69565 7.25519 8.11652 1.5 16.3478 1.5C24.5791 1.5 31 7.25519 31 14.0652C31 20.8752 24.5791 26.6304 16.3478 26.6304C14.369 26.6304 12.4854 26.294 10.7684 25.6864L10.527 25.6009L10.2743 25.642L1.32011 27.0983L3.04211 19.8619Z" stroke="#36382E" stroke-width="2" stroke-linecap="round"/>
</svg>
