<svg width="27" height="33" viewBox="0 0 27 33" fill="none" xmlns="http://www.w3.org/2000/svg">
<path id="Vector" d="M17.3636 17.1818L19.6866 16.7172C20.1538 16.6238 20.5233 17.0793 20.2936 17.4968C19.055 19.7479 16.5229 22.6364 14.6364 22.6364M16 19.2273C18.7273 21.4091 21 22.8636 22.1364 23.3182M17.3636 10.8012C18.5 10.5739 20.9091 10.2557 21.4545 10.8012C22 11.3466 21.2273 13.3012 20.7727 14.2103H17.3636M10.5455 17.8636C11.2273 17.6364 12.8636 17.1818 13.9545 17.1818M10.5455 19.9091C11.2273 19.6818 12.8636 19.2273 13.9545 19.2273M9.86364 22.6364L11.2273 11.0455C12.0455 10.8784 14.7754 10.5027 15.3182 11.0454C16 11.7273 14.6364 13.9534 14.6364 14.4545L11.3637 14.9557M9.18182 9.68182C9.18182 10.8182 8.09091 13.7727 3.72727 16.5M7.81818 14.4545L7.13636 22.6364M1 26.0455V3.5C1 2.39543 1.89543 1.5 3 1.5H23.5455C24.65 1.5 25.5455 2.39543 25.5455 3.5V29.5C25.5455 30.6046 24.65 31.5 23.5455 31.5H7.13636M1 26.0455L5.91943 24.9522C6.54395 24.8135 7.13636 25.2887 7.13636 25.9284V31.5M1 26.0455L4.06818 28.7727L7.13636 31.5" stroke="#36382E" stroke-width="1.6" stroke-linecap="round"/>
</svg>
