<svg width="32" height="31" viewBox="0 0 32 31" fill="none" xmlns="http://www.w3.org/2000/svg">
<g id="Group 10">
<path id="Vector 74" d="M1.20593 8.43444C2.72012 8.43444 4.34299 7.41027 5.6899 6.83302C8.0169 5.83573 10.4528 5.01058 12.7361 3.95048C15.2874 2.76594 17.9562 1.78086 20.6517 1.01073C21.4276 0.789035 20.8106 4.06707 20.7775 4.76262C20.6152 8.17104 20.8485 11.5443 21.1779 14.9202C21.3962 17.1579 21.5516 19.3916 21.8985 21.6118C22.0319 22.4658 23.0894 25.1218 21.7956 24.9062" stroke="#36382E" stroke-width="2" stroke-linecap="round"/>
<path id="Vector 75" d="M21.7956 24.4944C17.5664 24.4944 13.822 25.3629 9.85361 26.7592C8.49338 27.2378 7.20961 27.8687 5.94157 28.5208C5.37931 28.81 4.25367 29.8907 4.0885 29.23" stroke="#36382E" stroke-width="2" stroke-linecap="round"/>
<path id="Vector 76" d="M1 9.25806C1 14.4134 2.14001 19.5503 2.23538 24.7003C2.24737 25.3476 2.62886 30.0627 3.05897 29.8477" stroke="#36382E" stroke-width="2" stroke-linecap="round"/>
<path id="Vector 77" d="M21.7955 5.346C23.0207 5.346 24.2155 4.9342 25.3987 4.9342C26.4129 4.9342 25.9135 8.9361 25.9135 9.50968C25.9135 14.1023 26.5312 18.6471 26.5312 23.259" stroke="#36382E" stroke-width="2" stroke-linecap="round"/>
<path id="Vector 78" d="M26.7371 9.05214C27.3462 9.05214 29.4692 8.70966 29.8255 9.15509C30.541 10.0494 29.848 12.2679 29.7226 13.2959C29.1127 18.2967 29.8255 23.7118 29.8255 28.7724C29.8255 30.0953 26.8978 29.2758 26.005 29.1156C23.1746 28.6076 20.1483 28.1314 17.2659 28.0061C13.4112 27.8385 1.87731 29.0241 5.73566 29.0241" stroke="#36382E" stroke-width="2" stroke-linecap="round"/>
<path id="Vector 79" d="M5.52979 12.7583C5.98681 12.7583 6.42029 12.3345 6.81092 12.0948C8.22818 11.2251 9.68277 10.4074 11.1805 9.68126C12.8066 8.89286 14.5783 8.57536 16.2364 8.02264" stroke="#36382E" stroke-width="2" stroke-linecap="round"/>
</g>
</svg>
