<svg width="39" height="35" viewBox="0 0 39 35" fill="none" xmlns="http://www.w3.org/2000/svg">
<g id="Group 14">
<path id="Vector 88" d="M9.04305 13.7412C7.52598 13.7412 6.00892 13.7412 4.49185 13.7412C3.98903 13.7412 1.70266 14.0105 2.55605 13.3705" stroke="#36382E" stroke-width="3" stroke-linecap="round"/>
<path id="Vector 89" d="M2 13.7412C3.18736 12.2899 3.79491 10.1641 4.92429 8.59277C6.02761 7.05771 7.18407 5.47485 8.48699 4.10336C9.30501 3.24229 10.7788 0.559825 11.2671 3.0016C11.7359 5.34547 12.7499 7.48048 12.7499 9.94165C12.7499 10.5104 10.1862 14.1119 9.78439 14.1119" stroke="#36382E" stroke-width="3" stroke-linecap="round"/>
<path id="Vector 90" d="M10.3405 15.2239C10.3951 15.661 11.8797 16.3016 12.1939 16.5625C13.2536 17.4422 14.1871 18.3291 15.1594 19.3014" stroke="#36382E" stroke-width="3" stroke-linecap="round"/>
<path id="Vector 91" d="M13.3059 10.7757C13.7953 10.8369 14.8945 12.0518 15.355 12.3511C16.4789 13.0817 17.6099 14.0088 18.7632 14.6679C19.4367 15.0527 17.8846 16.7299 17.61 17.0362C17.3636 17.3109 16.1989 19.0436 16.086 18.9308" stroke="#36382E" stroke-width="3" stroke-linecap="round"/>
<path id="Vector 92" d="M16.0861 21.1548C16.0861 23.1945 17.0803 25.3325 17.3835 27.3535C17.4808 28.0025 18.0015 32.9753 18.8662 31.534" stroke="#36382E" stroke-width="3" stroke-linecap="round"/>
<path id="Vector 93" d="M19.6075 15.2239C23.7075 15.2239 27.6038 13.9265 31.6548 13.9265" stroke="#36382E" stroke-width="3" stroke-linecap="round"/>
<path id="Vector 94" d="M31.0988 15.5946C31.012 17.1577 29.3133 19.1704 28.4937 20.4238C26.8434 22.9479 24.9252 25.3946 23.0879 27.786C21.7908 29.4744 17.9168 34.5224 19.4222 33.0168" stroke="#36382E" stroke-width="3" stroke-linecap="round"/>
<path id="Vector 95" d="M26.6506 24.1204C28.511 24.9958 30.0457 26.595 31.6445 27.8993C33.1658 29.1403 34.9301 31.2255 36.6591 32.0901" stroke="#36382E" stroke-width="3" stroke-linecap="round"/>
</g>
</svg>
