<svg width="43" height="43" viewBox="0 0 43 43" fill="none" xmlns="http://www.w3.org/2000/svg">
<g id="Group 13">
<path id="Vector 80" d="M10.5258 8.70569C11.2252 8.78341 11.9857 9.38303 12.5645 9.72507C14.1841 10.6821 15.7442 11.4766 17.2908 12.6082C20.9386 15.2773 24.3785 18.2034 27.9892 20.8971C33.3046 24.8626 42.6624 32.0117 40.9219 39.8433" stroke="#36382E" stroke-width="3" stroke-linecap="round"/>
<path id="Vector 81" d="M34.991 24.6452C34.991 23.321 36.038 20.5376 37.4005 20.197" stroke="#36382E" stroke-width="3" stroke-linecap="round"/>
<path id="Vector 82" d="M33.6936 27.796C32.7306 26.94 31.2416 27.6615 30.2648 28.0637C28.2706 28.8849 26.914 29.6363 25.5385 31.3175" stroke="#36382E" stroke-width="3" stroke-linecap="round"/>
<path id="Vector 83" d="M2 3.70142C3.46419 3.70142 4.34778 5.78214 5.04786 6.79046C6.83572 9.36551 8.07953 11.554 8.67234 14.6366" stroke="#36382E" stroke-width="3" stroke-linecap="round"/>
<path id="Vector 84" d="M2 3.70145C3.10547 2.59602 4.9823 2.20625 6.48941 2.07456C9.06069 1.84988 14.5588 1.99929 16.086 4.44282" stroke="#36382E" stroke-width="3" stroke-linecap="round"/>
<path id="Vector 85" d="M17.9395 8.14965C17.9941 6.29371 19.4252 4.84186 20.905 6.38889C21.526 7.03815 25.8771 12.7949 26.1049 10.7444C26.2717 9.24298 28.1395 8.723 29.4308 9.11755C30.7319 9.51511 31.4963 12.3592 31.9844 13.3598C32.7326 14.8937 33.4641 16.4985 33.879 18.1582" stroke="#36382E" stroke-width="3" stroke-linecap="round"/>
<path id="Vector 86" d="M10.3404 17.6021C9.61028 18.3615 9.26069 19.2607 9.08422 20.2999C8.86925 21.5658 9.97598 21.4405 10.9994 21.484C12.8068 21.5609 14.528 20.9083 16.292 20.6088C17.2612 20.4442 16.1429 21.5778 15.9007 21.968C14.4927 24.2364 15.3912 25.3329 17.6306 26.272C18.6159 26.6852 19.4401 27.1093 20.5446 27.0443C21.9343 26.9625 23.2078 26.3132 24.6118 26.3132" stroke="#36382E" stroke-width="3" stroke-linecap="round"/>
<path id="Vector 87" d="M34.8057 39.4726C35.2358 38.8274 32.3596 37.2594 31.9226 37.0734C29.418 36.0076 26.6349 35.8788 23.9528 35.9614C22.3856 36.0096 19.614 35.8822 20.0091 37.9898C20.3015 39.5489 22.1311 40.5105 19.7929 39.7506C18.065 39.189 16.4272 38.8912 14.6033 38.9165C14.3623 38.9199 11.8761 39.2233 12.4616 39.8433C13.2619 40.6906 13.1885 40.3993 11.7614 40.3993C11.0165 40.3993 9.50059 40.0836 9.04303 40.77" stroke="#36382E" stroke-width="3" stroke-linecap="round"/>
</g>
</svg>
