<svg width="39" height="36" viewBox="0 0 39 36" fill="none" xmlns="http://www.w3.org/2000/svg">
<g id="Vector 18">
<path d="M8.55102 23.2755C12.3265 24.0306 15.7245 20.6327 15.7245 19.8776C14.6037 19.077 11.6651 18.8423 8.55102 18.8359V23.2755Z" fill="#36382E"/>
<path d="M15.7245 19.8776C15.7245 18.1798 11.2694 14.8184 8.55102 15.7245V18.8359C11.6651 18.8423 14.6037 19.077 15.7245 19.8776Z" fill="#36382E"/>
<path d="M12.3265 13.1077V2C12.3265 1.44772 12.7742 1 13.3265 1H19.8776M38 34.9796V2C38 1.44772 37.5523 1 37 1H19.8776M38 34.9796H13.3265C12.7742 34.9796 12.3265 34.5319 12.3265 33.9796V25.9965M38 34.9796L20.5437 28.7972C20.1444 28.6557 19.8776 28.2781 19.8776 27.8545V1M1 19.1224C2.89236 19.0042 5.79064 18.8303 8.55102 18.8359M15.7245 19.8776C15.7245 18.1798 11.2694 14.8184 8.55102 15.7245V18.8359M15.7245 19.8776C15.7245 20.6327 12.3265 24.0306 8.55102 23.2755V18.8359M15.7245 19.8776C14.6037 19.077 11.6651 18.8423 8.55102 18.8359" stroke="#36382E" stroke-width="2" stroke-linecap="round"/>
</g>
</svg>
