<svg width="63" height="91" viewBox="0 0 63 91" fill="none" xmlns="http://www.w3.org/2000/svg">
<g id="Group 15">
<path id="Vector 96" d="M40.739 58.3675C44.882 60.3172 49.6561 52.4376 51.023 49.6084C53.8957 43.6624 54.5426 34.8122 52.7074 28.4908C51.1332 23.0683 48.251 16.8125 42.6185 14.4656C37.0845 12.1597 30.1181 10.1389 24.0719 11.7705C13.0561 14.743 5.75242 28.9293 5.01103 39.6791C4.63861 45.079 4.55066 48.3678 8.80547 52.2681C12.4409 55.6005 19.2786 57.8527 24.1428 56.7717" stroke="#36382E" stroke-width="3" stroke-linecap="round"/>
<path id="Vector 97" d="M14.0016 61.1356C13.9746 60.9465 13.6933 61.368 13.5744 61.5175C13.0583 62.1663 12.5767 62.8587 12.1502 63.5695C10.6103 66.1361 9.29908 68.7976 8.13028 71.5512C5.75512 77.1469 3.86529 82.9685 2 88.751" stroke="#36382E" stroke-width="3" stroke-linecap="round"/>
<path id="Vector 98" d="M49.5404 60.786C49.5609 60.9911 49.68 61.1584 49.7864 61.3298C50.6056 62.6496 51.2268 64.1069 51.9097 65.4986C53.5813 68.9056 55.27 72.2915 56.8035 75.7654C57.9871 78.4465 59.0646 81.1866 60.1179 83.9218C60.5599 85.0697 60.8575 86.246 60.9594 87.4692" stroke="#36382E" stroke-width="3" stroke-linecap="round"/>
<path id="Vector 99" d="M18.6625 33.5202C18.6625 35.6733 18.9396 38.4098 20.0607 40.2784" stroke="#36382E" stroke-width="3" stroke-linecap="round"/>
<path id="Vector 100" d="M29.4989 30.0246C29.4989 32.8088 29.8047 35.4201 31.0137 37.948" stroke="#36382E" stroke-width="3" stroke-linecap="round"/>
<path id="Vector 101" d="M38.3544 41.5601C36.4971 41.5601 34.4969 42.4355 32.6902 42.9001C31.2139 43.2797 29.106 43.7008 27.9841 44.8227C26.5634 46.2434 30.3825 48.7685 31.1949 49.6583C32.0002 50.5403 32.8955 51.857 33.9266 52.4872C34.9991 53.1426 35.6097 51.9888 36.2571 51.1795C36.9381 50.3283 40.4892 42.8803 39.8692 42.7253" stroke="#36382E" stroke-width="3" stroke-linecap="round"/>
<path id="Vector 102" d="M42.0831 13.8865C42.0831 12.7952 43.5397 11.6253 44.3229 11.09C45.7262 10.1308 47.8438 8.99261 49.6052 8.99261C50.4647 8.99261 51.2769 9.14915 52.1039 9.36806C52.9461 9.59099 53.1371 9.84105 53.5539 8.81783C54.4666 6.57779 54.5453 2.09015 51.1717 2.00137C48.2233 1.92378 48.7253 5.1641 50.0972 6.89524C51.6095 8.80363 53.0385 10.2652 55.1464 11.5107C56.7155 12.4379 60.0026 13.7785 59.1469 16.2234C58.5164 18.0248 55.4978 18.8803 54.3437 17.1491C53.691 16.1701 53.7352 14.3129 53.7352 13.1874C53.7352 12.5574 54.0751 10.6142 53.6187 10.1578" stroke="#36382E" stroke-width="3" stroke-linecap="round"/>
</g>
</svg>
