<svg width="34" height="27" viewBox="0 0 34 27" fill="none" xmlns="http://www.w3.org/2000/svg">
<g id="Group 11">
<path id="Vector 68" d="M9.71203 19.3014C9.80105 20.0136 12.0407 17.3029 12.2251 16.8256C12.7533 15.4586 12.3584 13.338 11.3874 12.2648C9.26263 9.91633 6.53887 9.83928 4.05293 11.9297C2.52521 13.2144 0.102766 17.8253 2.67539 19.3387C3.78327 19.9904 3.40485 20.0205 2.8057 21.2188C2.54716 21.7359 1.04613 24.4199 1 24.3276" stroke="#36382E" stroke-width="2" stroke-linecap="round"/>
<path id="Vector 69" d="M10.0471 20.3067C10.8847 21.1443 11.4115 22.2598 12.0576 23.2479C12.4092 23.7856 12.802 24.2943 13.1466 24.8303C13.2485 24.9887 13.3979 25.4702 13.3979 25.3329" stroke="#36382E" stroke-width="2" stroke-linecap="round"/>
<path id="Vector 70" d="M18.7591 14.9454C20.4081 14.7622 20.9765 10.9943 20.7324 9.75172C20.2507 7.29976 18.2216 6.06586 15.9203 6.06586C12.712 6.06586 11.0523 8.20782 11.0523 11.092" stroke="#36382E" stroke-width="2" stroke-linecap="round"/>
<path id="Vector 71" d="M18.7592 15.2805C18.7592 16.2466 20.1338 17.5854 20.6859 18.3055C20.9514 18.6517 22.5019 20.6956 22.6126 20.4742" stroke="#36382E" stroke-width="2" stroke-linecap="round"/>
<path id="Vector 72" d="M27.3036 10.2543C30.2232 7.33478 28.9502 0.181881 23.9156 1.07691C22.2436 1.37416 20.8137 2.62554 20.1925 4.22293C19.9712 4.79206 19.4753 7.01915 20.602 6.56847" stroke="#36382E" stroke-width="2" stroke-linecap="round"/>
<path id="Vector 73" d="M27.6387 11.5947C29.1927 13.1486 31.0879 15.4972 33 16.4533" stroke="#36382E" stroke-width="2" stroke-linecap="round"/>
</g>
</svg>
